<svg xmlns="http://www.w3.org/2000/svg" width="293.317" height="209.963" viewBox="0 0 293.317 209.963">
  <defs>
    <style>
      .cls-1 {
        fill: #ff4;
        stroke: #000;
        stroke-width: 3px;
      }
    </style>
  </defs>
  <path id="Subtraction_3" data-name="Subtraction 3" class="cls-1" d="M133.311,162.341c-2.374,0-4.787-.063-7.174-.189a131.4,131.4,0,0,1-46.394-10.961,125.3,125.3,0,0,1-19.918-11.054A119.532,119.532,0,0,1,42.71,125.986a112.674,112.674,0,0,1-13.855-16.792,105.521,105.521,0,0,1-10.131-18.97,100.162,100.162,0,0,1-5.946-20.689,98.642,98.642,0,0,1-1.3-21.946c.07-1.331.168-2.67.29-3.98l-.809.042c-.177.009-.356.014-.532.014A9.995,9.995,0,0,1,.446,34.187L-.5,16.213a3,3,0,0,1,2.839-3.154L260.988-.5c.053,0,.106,0,.159,0a3,3,0,0,1,2.993,2.843l.943,17.976a10,10,0,0,1-9.464,10.51L141.732,36.8,251.49,42.549a98.745,98.745,0,0,1-2.932,39.342,100.072,100.072,0,0,1-8.077,19.954,105.559,105.559,0,0,1-12.058,17.807A112.544,112.544,0,0,1,212.889,134.9a119.5,119.5,0,0,1-18.5,12.286c-.828.445-1.671.887-2.508,1.313-1.449.021-2.873.032-4.232.032a168.334,168.334,0,0,1-32.88-2.842,120.462,120.462,0,0,1-17.413-4.749,106.889,106.889,0,0,1-17.392-8.031,194.078,194.078,0,0,1-28.425-19.562A90.535,90.535,0,0,1,76.783,97.9a40.087,40.087,0,0,1-5.564-10.143,13.875,13.875,0,0,1-.858-3.646,26.756,26.756,0,0,0-.833,5.5A42.647,42.647,0,0,0,71.115,103.7c2.943,10.436,11.393,25.73,34.936,39.323,11.832,6.831,29.189,12.323,53.064,16.79-1.694.338-3.4.642-5.073.907A132.928,132.928,0,0,1,133.311,162.341ZM46.824,25.636c-.314,0-.633.014-.947.041-4.125.361-7.8,3.032-10.344,7.52A28.243,28.243,0,0,0,32.4,49.442c1.035,11.835,8.263,21.106,16.455,21.105.316,0,.635-.014.947-.041,4.125-.361,7.8-3.032,10.345-7.521a28.238,28.238,0,0,0,3.136-16.245C62.243,34.905,55.015,25.635,46.824,25.636Z" transform="matrix(-0.985, 0.174, -0.174, -0.985, 291, 161.699)"/>
</svg>
